<svg xmlns="http://www.w3.org/2000/svg" width="1555" height="105"><g fill="#FFF"><path d="M65.83 97.45c-.614 1.59-2.33 2.694-4.043 2.694H43.413c-1.712 0-3.43-1.104-4.042-2.693L2.999 7.309c-.49-1.226.368-2.698 1.835-2.698h20.822c1.717 0 3.306 1.104 3.92 2.698L51.74 66.465c.246.853 1.472.853 1.717 0l22.29-59.156c.612-1.594 2.207-2.698 3.918-2.698h20.823c1.466 0 2.325 1.472 1.834 2.698L65.83 97.451zM115.139 7.554c0-1.594 1.349-2.943 2.938-2.943h18.62c1.589 0 2.938 1.35 2.938 2.943v89.652c0 1.589-1.35 2.938-2.938 2.938h-18.62c-1.59 0-2.938-1.35-2.938-2.938V7.554zM156.656 74.912c-.123-1.712 1.471-3.43 3.183-3.43h16.535c2.816 0 3.43.614 4.9 3.19 1.712 3.183 6.735 6.12 15.31 6.12 9.187 0 12.125-3.06 12.125-5.88 0-4.042-4.778-6.49-16.29-10.41-15.186-5.022-35.15-12.37-35.15-32.089 0-18.247 15.554-29.636 37.352-29.636 22.294 0 37.849 11.635 39.07 28.778.122 1.717-1.467 3.434-3.184 3.434h-17.02c-2.33 0-3.434-1.104-4.165-3.311-1.471-4.037-6.126-7.716-14.21-7.716-8.329 0-11.635 3.31-11.635 6.494 0 3.797 4.41 5.754 15.8 9.673 13.229 4.655 35.763 12.493 35.763 33.439 0 18.615-16.168 28.415-37.966 28.415-21.68 0-38.701-9.555-40.418-27.072zM252.372 7.554c0-1.594 1.35-2.943 2.938-2.943h18.62c1.59 0 2.939 1.35 2.939 2.943v89.652c0 1.589-1.35 2.938-2.939 2.938h-18.62c-1.589 0-2.938-1.35-2.938-2.938V7.554zM292.469 28.372c-1.595 0-2.938-1.344-2.938-2.938V7.554c0-1.594 1.344-2.943 2.938-2.943h78.139c1.594 0 2.938 1.35 2.938 2.943v17.88c0 1.594-1.344 2.938-2.938 2.938h-24.374a2.456 2.456 0 0 0-2.448 2.452v66.382c0 1.589-1.349 2.938-2.938 2.938h-18.62c-1.589 0-2.938-1.35-2.938-2.938V30.824a2.459 2.459 0 0 0-2.448-2.452H292.47zM384.164 74.912c-.123-1.712 1.472-3.43 3.183-3.43h16.536c2.815 0 3.428.614 4.9 3.19 1.712 3.183 6.735 6.12 15.309 6.12 9.187 0 12.125-3.06 12.125-5.88 0-4.042-4.777-6.49-16.29-10.41-15.186-5.022-35.15-12.37-35.15-32.089 0-18.247 15.554-29.636 37.353-29.636 22.294 0 37.848 11.635 39.07 28.778.122 1.717-1.467 3.434-3.184 3.434h-17.02c-2.331 0-3.435-1.104-4.165-3.311-1.472-4.037-6.127-7.716-14.21-7.716-8.33 0-11.636 3.31-11.636 6.494 0 3.797 4.41 5.754 15.8 9.673 13.229 4.655 35.763 12.493 35.763 33.439 0 18.615-16.167 28.415-37.966 28.415-21.68 0-38.701-9.555-40.418-27.072zM546.344 67.318c.98-1.589 2.692-2.08 4.287-1.344l17.02 7.471c1.35.49 1.963 2.448 1.104 3.674-8.697 14.94-25.227 24.864-43.847 24.864-27.557 0-50.704-22.294-50.704-49.606s23.147-49.6 50.704-49.6c18.62 0 34.905 9.918 43.724 24.619.736 1.22.246 3.183-1.103 3.796l-16.898 7.47c-1.595.854-3.306.369-4.287-1.226-4.655-6.612-12.494-11.021-21.436-11.021-14.328 0-25.963 11.512-25.963 25.962 0 14.456 11.635 25.968 25.963 25.968 9.065 0 16.78-4.41 21.436-11.027zM578.53 52.377c0-27.311 23.148-49.6 50.705-49.6 27.925 0 50.704 22.289 50.704 49.6s-22.78 49.606-50.704 49.606c-27.557 0-50.705-22.294-50.705-49.606zm24.742 0c0 14.456 11.635 25.968 25.963 25.968 14.7 0 25.968-11.512 25.968-25.968 0-14.45-11.268-25.962-25.968-25.962-14.328 0-25.963 11.512-25.963 25.962zM690.465 28.372c-1.594 0-2.938-1.344-2.938-2.938V7.554c0-1.594 1.344-2.943 2.938-2.943h78.14c1.593 0 2.937 1.35 2.937 2.943v17.88c0 1.594-1.344 2.938-2.938 2.938H744.23a2.459 2.459 0 0 0-2.447 2.452v66.382c0 1.589-1.35 2.938-2.938 2.938h-18.62c-1.59 0-2.938-1.35-2.938-2.938V30.824a2.459 2.459 0 0 0-2.448-2.452h-24.374zM787.342 100.144c-1.59 0-2.938-1.35-2.938-2.938V7.554c0-1.594 1.349-2.943 2.938-2.943h18.497c1.59 0 2.938 1.35 2.938 2.943v66.504a2.458 2.458 0 0 0 2.448 2.448h40.418c1.595 0 2.938 1.349 2.938 2.938v17.761c0 1.59-1.343 2.939-2.938 2.939h-64.301zM901.06 7.309c.613-1.594 2.33-2.698 4.042-2.698h18.375c1.712 0 3.428 1.104 4.042 2.698l36.371 90.142c.49 1.221-.368 2.693-1.834 2.693h-20.823c-1.711 0-3.306-1.104-3.919-2.693l-3.428-8.942c-.491-1.35-1.835-2.325-3.306-2.325h-32.703c-1.467 0-2.816.976-3.306 2.325l-3.429 8.942c-.613 1.589-2.207 2.693-3.919 2.693h-20.822c-1.467 0-2.325-1.472-1.835-2.693L901.06 7.309zm21.19 56.703c1.227 0 1.963-1.22 1.595-2.325l-8.697-23.392c-.245-.859-1.472-.859-1.717 0l-8.82 23.392c-.362 1.104.368 2.325 1.595 2.325h16.044zM1001.08 97.206c0 1.589-1.35 2.938-2.939 2.938h-18.497c-1.59 0-2.939-1.35-2.939-2.938V7.554c0-1.594 1.35-2.943 2.939-2.943h14.823c1.834 0 3.674.858 4.773 2.33l39.314 49.11c.491.736 1.472.368 1.472-.49V7.554c0-1.594 1.35-2.943 2.938-2.943h18.498c1.589 0 2.938 1.35 2.938 2.943v89.652c0 1.589-1.35 2.938-2.938 2.938h-14.824c-1.834 0-3.674-.859-4.777-2.325l-39.31-48.993c-.49-.736-1.472-.368-1.472.49v47.89zM1088.39 100.144c-1.589 0-2.938-1.35-2.938-2.938V7.554c0-1.594 1.349-2.943 2.938-2.943h41.4c29.882 0 45.19 21.804 45.19 47.766 0 26.091-15.308 47.767-45.19 47.767h-41.4zm39.56-71.772h-15.554a2.459 2.459 0 0 0-2.448 2.452v43.234a2.458 2.458 0 0 0 2.448 2.448h15.554c14.578 0 22.294-9.796 22.294-24.129 0-14.328-7.716-24.005-22.294-24.005zM1185.69 86.792c0-8.447 6.98-15.432 15.432-15.432s15.432 6.985 15.432 15.432c0 8.451-6.98 15.431-15.432 15.431-8.451 0-15.431-6.98-15.431-15.431zM1297.667 67.318c.98-1.589 2.693-2.08 4.287-1.344l17.02 7.471c1.35.49 1.963 2.448 1.104 3.674-8.697 14.94-25.227 24.864-43.847 24.864-27.557 0-50.704-22.294-50.704-49.606s23.147-49.6 50.704-49.6c18.62 0 34.905 9.918 43.725 24.619.735 1.22.245 3.183-1.104 3.796l-16.898 7.47c-1.594.854-3.306.369-4.287-1.226-4.655-6.612-12.494-11.022-21.436-11.022-14.328 0-25.963 11.513-25.963 25.963 0 14.456 11.635 25.968 25.963 25.968 9.065 0 16.78-4.41 21.436-11.027zM1329.853 52.377c0-27.311 23.148-49.6 50.705-49.6 27.925 0 50.704 22.289 50.704 49.6s-22.78 49.606-50.704 49.606c-27.557 0-50.705-22.294-50.705-49.606zm24.742 0c0 14.456 11.635 25.968 25.963 25.968 14.7 0 25.968-11.512 25.968-25.968 0-14.45-11.267-25.962-25.968-25.962-14.328 0-25.963 11.512-25.963 25.962zM1472.043 97.206c0 1.589-1.348 2.938-2.938 2.938h-18.497c-1.59 0-2.938-1.35-2.938-2.938V7.554c0-1.594 1.349-2.943 2.938-2.943h18.743c1.711 0 3.428 1.104 4.287 2.575l25.104 49.969c.49.981 1.717.981 2.208 0l25.227-49.969c.858-1.471 2.57-2.575 4.287-2.575h18.737c1.594 0 2.938 1.35 2.938 2.943v89.652c0 1.589-1.344 2.938-2.938 2.938h-18.492c-1.594 0-2.938-1.35-2.938-2.938V53.604c0-.613-.859-.859-1.104-.246l-17.394 34.905c-.853 1.472-2.57 2.57-4.282 2.57h-10.168c-1.712 0-3.429-1.098-4.287-2.57l-17.389-34.905c-.245-.613-1.104-.367-1.104.246v43.602z"/></g></svg>