<svg height="45" width="117" xmlns="http://www.w3.org/2000/svg"><mask id="a" fill="#fff"><path d="M.027.187h116.649v34.208H.027z" fill-rule="evenodd"/></mask><mask id="b" fill="#fff"><path d="M.027 0h48.884v39.911H.027z" fill-rule="evenodd"/></mask><g fill="none" fill-rule="evenodd"><path d="M.027 34.395h116.649V.187H.027z" fill="#da2f2a" mask="url(#a)"/><g fill="#fffffe"><path d="M20.278 20.697H16.35v-4.6h8.796v3.968c0 6.32-4.138 9.904-9.77 9.904-6.362 0-10.639-4.918-10.639-12.679 0-7.478 4.451-12.676 10.814-12.676 4.971 0 7.613 2.351 9.213 6.145l-4.625 1.932c-.903-1.827-2.015-3.197-4.658-3.197-3.65 0-5.737 3.231-5.737 7.796 0 4.532 2.12 7.866 5.771 7.866 4.015 0 4.608-2.524 4.763-3.72.029-.31.046-.476.045-.74M52.594 29.584V5H69.49v4.812H57.459v5.09h9.024v4.777h-9.024v5.092h12.032v4.813zM89.823 29.584h5.355L85.93 5h-4.728l-9.318 24.584h5.214s.795-2.28 1.824-5.235H88c1.028 2.956 1.823 5.235 1.823 5.235m-9.278-9.905c1.439-4.146 2.804-8.112 2.917-8.534.112.422 1.477 4.388 2.914 8.534zM104.948 9.845v19.738h-4.867V9.845h-6.988V5h18.845v4.845z"/><path d="M40.427 11.096h-6.362V4.775h6.362c2.155 0 3.476.913 3.476 3.125 0 2.144-1.216 3.196-3.476 3.196zm8.484-3.3c0-5.234-3.79-7.796-8.38-7.796H29.199v24.584h4.867V15.73h4.903l4.345 8.854h5.598l-4.66-9.553c3.096-1.229 4.66-3.548 4.66-7.236zM2.603 37.352H1.104v1.474h1.5c.548 0 .807-.293.807-.741 0-.49-.259-.733-.808-.733zm-.063-2.096H1.104v1.085h1.492c.468 0 .636-.22.636-.537 0-.36-.2-.548-.692-.548zm.024 4.655H0v-5.705h2.588c1.096 0 1.79.53 1.79 1.507 0 .49-.226.882-.597 1.11.452.202.79.617.79 1.246 0 1.198-.798 1.842-2.007 1.842z" mask="url(#b)" transform="translate(0 5)"/><path d="M7.925 40.313H6.45v1.468h1.475c.524 0 .807-.243.807-.741 0-.514-.306-.727-.807-.727zm.67 4.598l-1.008-2.053H6.45v2.053H5.322v-5.705H7.95c1.064 0 1.943.594 1.943 1.809 0 .856-.363 1.394-1.081 1.68l1.08 2.216zM10.755 44.911h1.13v-5.705h-1.13zM15.239 40.33v4.581h-1.13V40.33h-1.62v-1.124h4.37v1.124zM19.181 41.52a17.315 17.315 0 0 1-.281-.888c-.057.212-.17.554-.284.889l-.361 1.034h1.29zm1.194 3.391l-.444-1.272h-2.064l-.443 1.272h-1.21l2.16-5.705h1.098l2.144 5.705zM22.343 44.911h1.129v-5.705h-1.13zM28.003 44.911l-2.073-3.114c-.136-.212-.322-.497-.395-.645 0 .213.016.93.016 1.248v2.511h-1.112v-5.705h1.08l1.999 3.015c.137.212.323.497.396.645 0-.213-.017-.93-.017-1.249v-2.41h1.113v5.704zM33.671 42.514c-.444.237-.622.53-.622.872 0 .368.291.603.855.603.348 0 .638-.082.87-.252zm2.176 2.397l-.427-.466c-.443.368-.984.555-1.644.555-1.153 0-1.855-.49-1.855-1.516 0-.799.434-1.279 1.153-1.638l-.145-.163c-.298-.334-.492-.7-.492-1.157 0-.928.726-1.41 1.677-1.41.694 0 1.145.21 1.685.596l-.54.823a1.896 1.896 0 0 0-1.178-.408c-.33 0-.53.138-.53.374 0 .245.12.409.297.62l1.556 1.793c.13-.261.258-.57.395-.946l.91.293c-.176.555-.385 1.036-.636 1.428l1.065 1.222zM43.056 44.911l-2.073-3.114c-.136-.212-.322-.497-.394-.645 0 .213.016.93.016 1.248v2.511h-1.113v-5.705h1.08l2 3.015c.137.212.323.497.395.645 0-.213-.016-.93-.016-1.249v-2.41h1.113v5.704zM47.264 40.25c-.91 0-1.29.79-1.29 1.808 0 1.019.38 1.81 1.29 1.81.912 0 1.29-.791 1.29-1.81 0-1.018-.378-1.808-1.29-1.808zm0 4.75c-1.54 0-2.45-1.206-2.45-2.942 0-1.737.91-2.942 2.45-2.942 1.541 0 2.452 1.205 2.452 2.942 0 1.736-.91 2.942-2.452 2.942zM53.07 40.313h-1.475v1.468h1.475c.524 0 .807-.243.807-.741 0-.514-.308-.727-.807-.727zm.67 4.598l-1.009-2.053h-1.136v2.053h-1.13v-5.705h2.63c1.064 0 1.941.594 1.941 1.809 0 .856-.362 1.394-1.08 1.68l1.08 2.216zM58.013 40.33v4.581h-1.13V40.33h-1.62v-1.124h4.371v1.124zM63.6 44.911v-2.397h-2.314v2.397h-1.128v-5.705h1.128v2.184H63.6v-2.184h1.129v5.705zM65.777 44.911v-5.705h3.919v1.115h-2.79v.988h1.621v1.106h-1.62v1.379h2.91v1.117zM73.219 40.313h-1.475v1.468h1.475c.524 0 .807-.243.807-.741 0-.514-.306-.727-.807-.727zm.669 4.598l-1.007-2.053h-1.137v2.053h-1.13v-5.705h2.629c1.065 0 1.943.594 1.943 1.809 0 .856-.362 1.394-1.08 1.68l1.08 2.216zM79.533 44.911l-2.073-3.114a8.377 8.377 0 0 1-.394-.645c0 .213.015.93.015 1.248v2.511h-1.112v-5.705h1.08l2 3.015c.137.212.322.497.395.645 0-.213-.015-.93-.015-1.249v-2.41h1.112v5.704zM83.927 44.911h1.13v-5.705h-1.13zM88.789 40.313h-1.476v1.468h1.476c.525 0 .806-.243.806-.741 0-.514-.306-.727-.806-.727zm.67 4.598l-1.01-2.053h-1.136v2.053h-1.128v-5.705h2.627c1.065 0 1.944.594 1.944 1.809 0 .856-.363 1.394-1.08 1.68l1.08 2.216zM91.7 44.911v-5.705h3.918v1.115h-2.789v.988h1.62v1.106h-1.62v1.379h2.911v1.117zM96.537 44.911v-5.705h1.128v4.58h2.832v1.125zM103.698 41.52a17.385 17.385 0 0 1-.283-.888c-.056.212-.17.554-.282.889l-.362 1.034h1.289zm1.193 3.391l-.444-1.272h-2.064l-.442 1.272h-1.21l2.16-5.705h1.097l2.145 5.705zM110.18 44.911l-2.072-3.114a9.81 9.81 0 0 1-.396-.645c0 .213.018.93.018 1.248v2.511h-1.113v-5.705h1.079l2 3.015c.138.212.324.497.397.645 0-.213-.017-.93-.017-1.249v-2.41h1.112v5.704zM113.8 40.313h-.596v3.488h.556c1.185 0 1.726-.701 1.726-1.743 0-1.166-.493-1.745-1.686-1.745zm-.04 4.598h-1.685v-5.705h1.766c1.612 0 2.806.765 2.806 2.852 0 2.004-1.436 2.853-2.887 2.853z"/></g></g></svg>